<?xml version="1.0" encoding="iso-8859-1"?>
<!-- Generator: Adobe Illustrator 19.0.0, SVG Export Plug-In . SVG Version: 6.00 Build 0)  -->
<svg version="1.1" id="Layer_1" xmlns="http://www.w3.org/2000/svg" xmlns:xlink="http://www.w3.org/1999/xlink" x="0px" y="0px"
	 viewBox="0 0 512 512" style="enable-background:new 0 0 512 512;" xml:space="preserve">
<path style="fill:#666666;" d="M55.303,310.403c-2.608-13.116-3.932-26.611-3.932-40.111c0-112.833,91.796-204.629,204.629-204.629
	c112.832,0,204.628,91.796,204.628,204.629c0,13.484-1.323,26.979-3.934,40.111l49.092,16.193
	c4.123-18.37,6.214-37.313,6.214-56.305c0-68.38-26.629-132.667-74.98-181.019C388.667,40.922,324.38,14.294,256,14.294
	S123.333,40.922,74.98,89.273C26.629,137.625,0,201.912,0,270.292c0,19.426,2.187,38.792,6.499,57.562L55.303,310.403z"/>
<path style="fill:#4D4D4D;" d="M256,65.663c112.832,0,204.628,91.796,204.628,204.629c0,13.484-1.323,26.979-3.934,40.111
	l49.092,16.193c4.123-18.37,6.214-37.313,6.214-56.305c0-68.38-26.629-132.667-74.98-181.019
	C388.667,40.922,324.38,14.294,256,14.294C256,23.667,256,47,256,65.663z"/>
<path style="fill:#00C2C7;" d="M89.557,454.907H57.561C25.821,454.907,0,429.086,0,397.347v-47.308
	c0-31.738,25.821-57.56,57.561-57.56h31.996V454.907z"/>
<path style="fill:#64DDE0;" d="M154.741,497.706H59.557V249.68h95.185v248.026H154.741z"/>
<path style="fill:#00A5AD;" d="M422.443,292.479h31.996c31.739,0,57.561,25.821,57.561,57.56v47.308
	c0,31.739-25.821,57.561-57.561,57.561h-31.996V292.479z"/>
<path style="fill:#00C2C7;" d="M357.259,249.68h95.185v248.026h-95.185V249.68z"/>
<g>
</g>
<g>
</g>
<g>
</g>
<g>
</g>
<g>
</g>
<g>
</g>
<g>
</g>
<g>
</g>
<g>
</g>
<g>
</g>
<g>
</g>
<g>
</g>
<g>
</g>
<g>
</g>
<g>
</g>
</svg>
